<?xml version="1.0" encoding="utf-8"?>
<!-- Generator: Adobe Illustrator 23.0.0, SVG Export Plug-In . SVG Version: 6.00 Build 0)  -->
<svg version="1.1" id="Layer_1" xmlns="http://www.w3.org/2000/svg" xmlns:xlink="http://www.w3.org/1999/xlink" x="0px" y="0px"
	 viewBox="0 0 2986.5 600" style="enable-background:new 0 0 2986.5 600;" xml:space="preserve">
<style type="text/css">
	.st0{display:none;}
	.st1{fill:#AB7AEC;}
	.st2{fill:#9D63E9;}
	.st3{fill:#5426F1;}
	.st4{fill:#3700EF;}
	.st5{fill:#4DE3C2;}
	.st6{fill:#00D7A8;}
	.st7{fill:none;}
	.st8{enable-background:new    ;}
	.st9{opacity:0.74;}
	.st10{clip-path:url(#SVGID_2_);}
</style>
<g id="logo-text">
	<g id="icon_2_">
		<g id="purple_2_">
			<polygon class="st1" points="405.5,135.2 298,196 190.5,135.2 299,74 			"/>
			<polygon class="st2" points="405.5,259.4 297,320.6 297,194.3 405.5,135.2 			"/>
		</g>
		<g id="blue_2_">
			<polygon class="st3" points="512,320.6 404.5,381.4 297,320.6 405.5,259.4 			"/>
			<polygon class="st4" points="510,444.8 403.5,506 403.5,379.8 512,320.6 			"/>
		</g>
		<g id="green_2_">
			<polygon class="st5" points="297,320.6 189.5,381.4 82,320.6 190.5,259.4 			"/>
			<polygon class="st6" points="295,444.8 188.5,506 188.5,379.8 297,320.6 			"/>
		</g>
	</g>
	<polygon class="st7" points="161.5,95.3 2823.9,192.1 2389.6,488.3 161.5,488.3 	"/>
	<g class="st8">
		<path class="st4" d="M609.9,171h55.9c18.9,0,33,5.1,42.4,15.2c9.4,10.1,14.1,25,14.1,44.5v23.8c0,19.6-4.7,34.4-14.1,44.5
			c-9.4,10.1-23.6,15.2-42.4,15.2h-17.9v98.3h-38V171z M665.8,279.7c6.2,0,10.9-1.7,14-5.2s4.7-9.3,4.7-17.6v-28.6
			c0-8.3-1.6-14.1-4.7-17.6c-3.1-3.4-7.8-5.2-14-5.2h-17.9v74.2H665.8z"/>
		<path class="st4" d="M759.9,171h56.2c19.5,0,33.8,4.5,42.8,13.6c9,9.1,13.5,23.1,13.5,41.9v14.8c0,25.1-8.3,40.9-24.8,47.6v0.7
			c9.2,2.8,15.7,8.4,19.5,16.9c3.8,8.5,5.7,19.9,5.7,34.2v42.4c0,6.9,0.2,12.5,0.7,16.7c0.5,4.3,1.6,8.5,3.5,12.6h-38.6
			c-1.4-3.9-2.3-7.6-2.8-11c-0.5-3.5-0.7-9.7-0.7-18.6v-44.2c0-11-1.8-18.7-5.3-23.1c-3.6-4.4-9.7-6.6-18.5-6.6h-13.1v103.5h-38V171
			z M811.7,274.5c7.6,0,13.3-2,17.1-5.9c3.8-3.9,5.7-10.5,5.7-19.7v-18.6c0-8.7-1.6-15.1-4.7-19c-3.1-3.9-8-5.9-14.7-5.9h-17.3v69
			H811.7z"/>
		<path class="st4" d="M928,400.1c-9.9-10.6-14.8-25.5-14.8-44.9v-127c0-19.3,4.9-34.3,14.8-44.9c9.9-10.6,24.2-15.9,42.8-15.9
			c18.6,0,32.9,5.3,42.8,15.9c9.9,10.6,14.8,25.5,14.8,44.9v127c0,19.3-4.9,34.3-14.8,44.9c-9.9,10.6-24.2,15.9-42.8,15.9
			C952.1,415.9,937.8,410.7,928,400.1z M990.4,357.6V225.8c0-15.9-6.6-23.8-19.7-23.8c-13.1,0-19.7,7.9-19.7,23.8v131.8
			c0,15.9,6.6,23.8,19.7,23.8C983.8,381.4,990.4,373.5,990.4,357.6z"/>
		<path class="st4" d="M1070.8,171h58c18.9,0,33,5.1,42.4,15.2c9.4,10.1,14.1,25,14.1,44.5v122.1c0,19.6-4.7,34.4-14.1,44.5
			c-9.4,10.1-23.6,15.2-42.4,15.2h-58V171z M1128.1,378c6.2,0,11-1.8,14.3-5.5c3.3-3.7,5-9.7,5-17.9V228.9c0-8.3-1.7-14.3-5-17.9
			c-3.3-3.7-8.1-5.5-14.3-5.5h-19.3V378H1128.1z"/>
		<path class="st4" d="M1240.9,400.2c-9.7-10.5-14.5-25.5-14.5-45V171h38v187c0,8.3,1.7,14.3,5,17.9c3.3,3.7,8.1,5.5,14.3,5.5
			c6.2,0,11-1.8,14.3-5.5c3.3-3.7,5-9.7,5-17.9V171h36.6v184.2c0,19.6-4.8,34.6-14.5,45c-9.7,10.5-23.7,15.7-42.1,15.7
			C1264.6,415.9,1250.5,410.7,1240.9,400.2z"/>
		<path class="st4" d="M1395.3,400.4c-9.5-10.4-14.3-25-14.3-43.8V226.9c0-18.9,4.8-33.5,14.3-43.8c9.5-10.4,23.4-15.5,41.6-15.5
			c18.2,0,32,5.2,41.6,15.5c9.5,10.4,14.3,25,14.3,43.8v25.5h-35.9v-27.9c0-14.9-6.3-22.4-19-22.4c-12.7,0-19,7.5-19,22.4v134.9
			c0,14.7,6.3,22.1,19,22.1c12.6,0,19-7.4,19-22.1v-36.9h35.9v34.2c0,18.9-4.8,33.5-14.3,43.8c-9.5,10.4-23.4,15.5-41.6,15.5
			C1418.7,415.9,1404.8,410.8,1395.3,400.4z"/>
		<path class="st4" d="M1562.1,205.5h-39.7V171h117.3v34.5H1600v207h-38V205.5z"/>
		<path class="st4" d="M1674.9,171h38v241.5h-38V171z"/>
		<path class="st4" d="M1748,171h38.3l24.8,187.3h0.7l24.8-187.3h34.8L1835,412.5h-50.4L1748,171z"/>
		<path class="st4" d="M1906.7,171h38v241.5h-38V171z"/>
		<path class="st4" d="M2019.5,205.5h-39.7V171h117.3v34.5h-39.7v207h-38V205.5z"/>
		<path class="st4" d="M2168.6,309.7L2122.7,171h40.4l25.9,88.7h0.7l25.9-88.7h36.9l-45.9,138.7v102.8h-38V309.7z"/>
		<path class="st4" d="M2370.4,400.2c-9.7-10.5-14.5-25.5-14.5-45v-127c0-19.5,4.8-34.6,14.5-45c9.7-10.5,23.7-15.7,42.1-15.7
			c18.4,0,32.4,5.2,42.1,15.7c9.7,10.5,14.5,25.5,14.5,45V249h-35.9v-23.1c0-15.9-6.6-23.8-19.7-23.8s-19.7,7.9-19.7,23.8V358
			c0,15.6,6.6,23.5,19.7,23.5s19.7-7.8,19.7-23.5v-47.3h-19v-34.5h54.9v79c0,19.6-4.8,34.6-14.5,45c-9.7,10.5-23.7,15.7-42.1,15.7
			C2394.1,415.9,2380.1,410.7,2370.4,400.2z"/>
		<path class="st4" d="M2523.6,400.2c-9.7-10.5-14.5-25.5-14.5-45V171h38v187c0,8.3,1.7,14.3,5,17.9c3.3,3.7,8.1,5.5,14.3,5.5
			s11-1.8,14.3-5.5c3.3-3.7,5-9.7,5-17.9V171h36.6v184.2c0,19.6-4.8,34.6-14.5,45c-9.7,10.5-23.7,15.7-42.1,15.7
			C2547.3,415.9,2533.3,410.7,2523.6,400.2z"/>
		<path class="st4" d="M2700.9,309.7L2655,171h40.4l25.9,88.7h0.7l25.9-88.7h36.9l-45.9,138.7v102.8h-38V309.7z"/>
		<path class="st4" d="M2821,400.2c-9.4-10.5-14.1-25.5-14.1-45v-13.8h35.9V358c0,15.6,6.6,23.5,19.7,23.5c6.4,0,11.3-1.9,14.7-5.7
			c3.3-3.8,5-9.9,5-18.5c0-10.1-2.3-19-6.9-26.7c-4.6-7.7-13.1-17-25.5-27.8c-15.6-13.8-26.6-26.3-32.8-37.4
			c-6.2-11.2-9.3-23.7-9.3-37.8c0-19.1,4.8-33.9,14.5-44.3c9.7-10.5,23.7-15.7,42.1-15.7c18.2,0,31.9,5.2,41.2,15.7
			c9.3,10.5,14,25.5,14,45v10h-35.9v-12.4c0-8.3-1.6-14.3-4.8-18.1c-3.2-3.8-7.9-5.7-14.1-5.7c-12.7,0-19,7.7-19,23.1
			c0,8.7,2.4,16.9,7.1,24.5c4.7,7.6,13.3,16.8,25.7,27.6c15.9,13.8,26.8,26.3,32.8,37.6c6,11.3,9,24.5,9,39.7
			c0,19.8-4.9,35-14.7,45.5c-9.8,10.6-24,15.9-42.6,15.9C2844.3,415.9,2830.4,410.7,2821,400.2z"/>
	</g>
	<g class="st9">
		<g>
			<g>
				<defs>
					<polygon id="SVGID_1_" points="72,-62.3 2712.8,-206 3166.2,242.7 525.4,386.4 					"/>
				</defs>
				<clipPath id="SVGID_2_">
					<use xlink:href="#SVGID_1_"  style="overflow:visible;"/>
				</clipPath>
				<g class="st10">
					<polygon class="st7" points="161.5,95.3 2823.9,192.1 2389.6,488.3 161.5,488.3 					"/>
					<g class="st8">
						<path class="st3" d="M609.9,171h55.9c18.9,0,33,5.1,42.4,15.2c9.4,10.1,14.1,25,14.1,44.5v23.8c0,19.6-4.7,34.4-14.1,44.5
							c-9.4,10.1-23.6,15.2-42.4,15.2h-17.9v98.3h-38V171z M665.8,279.7c6.2,0,10.9-1.7,14-5.2s4.7-9.3,4.7-17.6v-28.6
							c0-8.3-1.6-14.1-4.7-17.6c-3.1-3.4-7.8-5.2-14-5.2h-17.9v74.2H665.8z"/>
						<path class="st3" d="M759.9,171h56.2c19.5,0,33.8,4.5,42.8,13.6c9,9.1,13.5,23.1,13.5,41.9v14.8c0,25.1-8.3,40.9-24.8,47.6
							v0.7c9.2,2.8,15.7,8.4,19.5,16.9c3.8,8.5,5.7,19.9,5.7,34.2v42.4c0,6.9,0.2,12.5,0.7,16.7c0.5,4.3,1.6,8.5,3.5,12.6h-38.6
							c-1.4-3.9-2.3-7.6-2.8-11c-0.5-3.5-0.7-9.7-0.7-18.6v-44.2c0-11-1.8-18.7-5.3-23.1c-3.6-4.4-9.7-6.6-18.5-6.6h-13.1v103.5h-38
							V171z M811.7,274.5c7.6,0,13.3-2,17.1-5.9c3.8-3.9,5.7-10.5,5.7-19.7v-18.6c0-8.7-1.6-15.1-4.7-19c-3.1-3.9-8-5.9-14.7-5.9
							h-17.3v69H811.7z"/>
						<path class="st3" d="M928,400.1c-9.9-10.6-14.8-25.5-14.8-44.9v-127c0-19.3,4.9-34.3,14.8-44.9c9.9-10.6,24.2-15.9,42.8-15.9
							c18.6,0,32.9,5.3,42.8,15.9c9.9,10.6,14.8,25.5,14.8,44.9v127c0,19.3-4.9,34.3-14.8,44.9c-9.9,10.6-24.2,15.9-42.8,15.9
							C952.1,415.9,937.8,410.7,928,400.1z M990.4,357.6V225.8c0-15.9-6.6-23.8-19.7-23.8c-13.1,0-19.7,7.9-19.7,23.8v131.8
							c0,15.9,6.6,23.8,19.7,23.8C983.8,381.4,990.4,373.5,990.4,357.6z"/>
						<path class="st3" d="M1070.8,171h58c18.9,0,33,5.1,42.4,15.2c9.4,10.1,14.1,25,14.1,44.5v122.1c0,19.6-4.7,34.4-14.1,44.5
							c-9.4,10.1-23.6,15.2-42.4,15.2h-58V171z M1128.1,378c6.2,0,11-1.8,14.3-5.5c3.3-3.7,5-9.7,5-17.9V228.9
							c0-8.3-1.7-14.3-5-17.9c-3.3-3.7-8.1-5.5-14.3-5.5h-19.3V378H1128.1z"/>
						<path class="st3" d="M1240.9,400.2c-9.7-10.5-14.5-25.5-14.5-45V171h38v187c0,8.3,1.7,14.3,5,17.9c3.3,3.7,8.1,5.5,14.3,5.5
							c6.2,0,11-1.8,14.3-5.5c3.3-3.7,5-9.7,5-17.9V171h36.6v184.2c0,19.6-4.8,34.6-14.5,45c-9.7,10.5-23.7,15.7-42.1,15.7
							C1264.6,415.9,1250.5,410.7,1240.9,400.2z"/>
						<path class="st3" d="M1395.3,400.4c-9.5-10.4-14.3-25-14.3-43.8V226.9c0-18.9,4.8-33.5,14.3-43.8
							c9.5-10.4,23.4-15.5,41.6-15.5c18.2,0,32,5.2,41.6,15.5c9.5,10.4,14.3,25,14.3,43.8v25.5h-35.9v-27.9c0-14.9-6.3-22.4-19-22.4
							c-12.7,0-19,7.5-19,22.4v134.9c0,14.7,6.3,22.1,19,22.1c12.6,0,19-7.4,19-22.1v-36.9h35.9v34.2c0,18.9-4.8,33.5-14.3,43.8
							c-9.5,10.4-23.4,15.5-41.6,15.5C1418.7,415.9,1404.8,410.8,1395.3,400.4z"/>
						<path class="st3" d="M1562.1,205.5h-39.7V171h117.3v34.5H1600v207h-38V205.5z"/>
						<path class="st3" d="M1674.9,171h38v241.5h-38V171z"/>
						<path class="st3" d="M1748,171h38.3l24.8,187.3h0.7l24.8-187.3h34.8L1835,412.5h-50.4L1748,171z"/>
						<path class="st3" d="M1906.7,171h38v241.5h-38V171z"/>
						<path class="st3" d="M2019.5,205.5h-39.7V171h117.3v34.5h-39.7v207h-38V205.5z"/>
						<path class="st3" d="M2168.6,309.7L2122.7,171h40.4l25.9,88.7h0.7l25.9-88.7h36.9l-45.9,138.7v102.8h-38V309.7z"/>
						<path class="st3" d="M2370.4,400.2c-9.7-10.5-14.5-25.5-14.5-45v-127c0-19.5,4.8-34.6,14.5-45c9.7-10.5,23.7-15.7,42.1-15.7
							c18.4,0,32.4,5.2,42.1,15.7c9.7,10.5,14.5,25.5,14.5,45V249h-35.9v-23.1c0-15.9-6.6-23.8-19.7-23.8s-19.7,7.9-19.7,23.8V358
							c0,15.6,6.6,23.5,19.7,23.5s19.7-7.8,19.7-23.5v-47.3h-19v-34.5h54.9v79c0,19.6-4.8,34.6-14.5,45
							c-9.7,10.5-23.7,15.7-42.1,15.7C2394.1,415.9,2380.1,410.7,2370.4,400.2z"/>
						<path class="st3" d="M2523.6,400.2c-9.7-10.5-14.5-25.5-14.5-45V171h38v187c0,8.3,1.7,14.3,5,17.9c3.3,3.7,8.1,5.5,14.3,5.5
							s11-1.8,14.3-5.5c3.3-3.7,5-9.7,5-17.9V171h36.6v184.2c0,19.6-4.8,34.6-14.5,45c-9.7,10.5-23.7,15.7-42.1,15.7
							C2547.3,415.9,2533.3,410.7,2523.6,400.2z"/>
						<path class="st3" d="M2700.9,309.7L2655,171h40.4l25.9,88.7h0.7l25.9-88.7h36.9l-45.9,138.7v102.8h-38V309.7z"/>
						<path class="st3" d="M2821,400.2c-9.4-10.5-14.1-25.5-14.1-45v-13.8h35.9V358c0,15.6,6.6,23.5,19.7,23.5
							c6.4,0,11.3-1.9,14.7-5.7c3.3-3.8,5-9.9,5-18.5c0-10.1-2.3-19-6.9-26.7c-4.6-7.7-13.1-17-25.5-27.8
							c-15.6-13.8-26.6-26.3-32.8-37.4c-6.2-11.2-9.3-23.7-9.3-37.8c0-19.1,4.8-33.9,14.5-44.3c9.7-10.5,23.7-15.7,42.1-15.7
							c18.2,0,31.9,5.2,41.2,15.7c9.3,10.5,14,25.5,14,45v10h-35.9v-12.4c0-8.3-1.6-14.3-4.8-18.1c-3.2-3.8-7.9-5.7-14.1-5.7
							c-12.7,0-19,7.7-19,23.1c0,8.7,2.4,16.9,7.1,24.5c4.7,7.6,13.3,16.8,25.7,27.6c15.9,13.8,26.8,26.3,32.8,37.6
							c6,11.3,9,24.5,9,39.7c0,19.8-4.9,35-14.7,45.5c-9.8,10.6-24,15.9-42.6,15.9C2844.3,415.9,2830.4,410.7,2821,400.2z"/>
					</g>
				</g>
			</g>
		</g>
	</g>
</g>
</svg>
