<?xml version="1.0" encoding="utf-8"?>
<!-- Generator: Adobe Illustrator 23.0.0, SVG Export Plug-In . SVG Version: 6.00 Build 0)  -->
<svg version="1.1" id="Layer_1" xmlns="http://www.w3.org/2000/svg" xmlns:xlink="http://www.w3.org/1999/xlink" x="0px" y="0px"
	 viewBox="0 0 1000 1000" style="enable-background:new 0 0 1000 1000;" xml:space="preserve">
<style type="text/css">
	.st0{display:none;}
	.st1{fill:#AB7AEC;}
	.st2{fill:#9D63E9;}
	.st3{fill:#5426F1;}
	.st4{fill:#3700EF;}
	.st5{fill:#4DE3C2;}
	.st6{fill:#00D7A8;}
	.st7{fill:none;}
	.st8{enable-background:new    ;}
	.st9{opacity:0.74;}
	.st10{clip-path:url(#SVGID_2_);}
</style>
<g id="logo-hor">
	<g>
		<g id="icon_1_">
			<g id="purple">
				<polygon class="st1" points="590.8,220.9 469.6,289.6 348.4,220.9 470.7,152 				"/>
				<polygon class="st2" points="590.8,361 468.5,430 468.5,287.6 590.8,220.9 				"/>
			</g>
			<g id="blue">
				<polygon class="st3" points="710.9,430 589.7,498.6 468.5,430 590.8,361 				"/>
				<polygon class="st4" points="708.7,570.1 588.6,639 588.6,496.7 710.9,430 				"/>
			</g>
			<g id="green">
				<polygon class="st5" points="468.5,430 347.3,498.6 226.1,430 348.4,361 				"/>
				<polygon class="st6" points="466.3,570.1 346.2,639 346.2,496.7 468.5,430 				"/>
			</g>
		</g>
		<g id="text">
			<rect x="36" y="736.5" class="st7" width="929.6" height="164"/>
			<g class="st8">
				<path class="st4" d="M41.4,736.5h21.3c7.2,0,12.6,1.9,16.2,5.8c3.6,3.9,5.4,9.5,5.4,17v9.1c0,7.4-1.8,13.1-5.4,17
					c-3.6,3.9-9,5.8-16.2,5.8h-6.8v37.5H41.4V736.5z M62.7,777.9c2.4,0,4.1-0.7,5.3-2c1.2-1.3,1.8-3.5,1.8-6.7v-10.9
					c0-3.2-0.6-5.4-1.8-6.7c-1.2-1.3-3-2-5.3-2h-6.8v28.3H62.7z"/>
				<path class="st4" d="M99.1,736.5h21.4c7.4,0,12.9,1.7,16.3,5.2c3.4,3.5,5.1,8.8,5.1,16v5.7c0,9.6-3.2,15.6-9.5,18.1v0.3
					c3.5,1.1,6,3.2,7.4,6.4c1.4,3.2,2.2,7.6,2.2,13v16.2c0,2.6,0.1,4.8,0.3,6.4c0.2,1.6,0.6,3.2,1.3,4.8h-14.7
					c-0.5-1.5-0.9-2.9-1.1-4.2c-0.2-1.3-0.3-3.7-0.3-7.1v-16.8c0-4.2-0.7-7.1-2-8.8c-1.4-1.7-3.7-2.5-7-2.5h-5v39.4H99.1V736.5z
					 M118.8,775.9c2.9,0,5.1-0.7,6.5-2.2c1.4-1.5,2.2-4,2.2-7.5v-7.1c0-3.3-0.6-5.7-1.8-7.2c-1.2-1.5-3-2.2-5.6-2.2h-6.6v26.3H118.8
					z"/>
				<path class="st4" d="M163.6,823.8c-3.8-4-5.7-9.7-5.7-17.1v-48.4c0-7.4,1.9-13.1,5.7-17.1c3.8-4,9.2-6,16.3-6s12.5,2,16.3,6
					c3.8,4,5.7,9.7,5.7,17.1v48.4c0,7.4-1.9,13.1-5.7,17.1c-3.8,4-9.2,6-16.3,6S167.4,827.8,163.6,823.8z M187.4,807.6v-50.2
					c0-6-2.5-9.1-7.5-9.1s-7.5,3-7.5,9.1v50.2c0,6,2.5,9.1,7.5,9.1S187.4,813.6,187.4,807.6z"/>
				<path class="st4" d="M218.6,736.5h22.1c7.2,0,12.6,1.9,16.2,5.8c3.6,3.9,5.4,9.5,5.4,17v46.5c0,7.4-1.8,13.1-5.4,17
					c-3.6,3.9-9,5.8-16.2,5.8h-22.1V736.5z M240.4,815.3c2.4,0,4.2-0.7,5.5-2.1c1.3-1.4,1.9-3.7,1.9-6.8v-47.8
					c0-3.2-0.6-5.4-1.9-6.8c-1.3-1.4-3.1-2.1-5.5-2.1H233v65.7H240.4z"/>
				<path class="st4" d="M283.9,823.8c-3.7-4-5.5-9.7-5.5-17.2v-70.2h14.5v71.2c0,3.2,0.6,5.4,1.9,6.8c1.3,1.4,3.1,2.1,5.5,2.1
					s4.2-0.7,5.5-2.1c1.3-1.4,1.9-3.7,1.9-6.8v-71.2h13.9v70.2c0,7.4-1.8,13.2-5.5,17.2c-3.7,4-9,6-16,6
					C292.9,829.8,287.6,827.8,283.9,823.8z"/>
				<path class="st4" d="M343.2,823.9c-3.6-3.9-5.5-9.5-5.5-16.7v-49.4c0-7.2,1.8-12.7,5.5-16.7c3.6-3.9,8.9-5.9,15.8-5.9
					c6.9,0,12.2,2,15.8,5.9c3.6,3.9,5.5,9.5,5.5,16.7v9.7h-13.7v-10.6c0-5.7-2.4-8.5-7.2-8.5c-4.8,0-7.2,2.8-7.2,8.5v51.4
					c0,5.6,2.4,8.4,7.2,8.4c4.8,0,7.2-2.8,7.2-8.4v-14.1h13.7v13c0,7.2-1.8,12.7-5.5,16.7c-3.6,3.9-8.9,5.9-15.8,5.9
					C352.1,829.8,346.8,827.8,343.2,823.9z"/>
				<path class="st4" d="M407.3,749.6h-15.1v-13.1h44.7v13.1h-15.1v78.9h-14.5V749.6z"/>
				<path class="st4" d="M450.8,736.5h14.5v92h-14.5V736.5z"/>
				<path class="st4" d="M479.2,736.5h14.6l9.5,71.4h0.3l9.5-71.4h13.3l-13.9,92h-19.2L479.2,736.5z"/>
				<path class="st4" d="M540.2,736.5h14.5v92h-14.5V736.5z"/>
				<path class="st4" d="M583.7,749.6h-15.1v-13.1h44.7v13.1h-15.1v78.9h-14.5V749.6z"/>
				<path class="st4" d="M641,789.3l-17.5-52.8h15.4l9.9,33.8h0.3l9.9-33.8h14.1l-17.5,52.8v39.2H641V789.3z"/>
				<path class="st4" d="M718.9,823.8c-3.7-4-5.5-9.7-5.5-17.2v-48.4c0-7.4,1.8-13.2,5.5-17.2c3.7-4,9-6,16-6s12.4,2,16,6
					c3.7,4,5.5,9.7,5.5,17.2v7.9h-13.7v-8.8c0-6-2.5-9.1-7.5-9.1s-7.5,3-7.5,9.1v50.3c0,6,2.5,8.9,7.5,8.9s7.5-3,7.5-8.9v-18h-7.2
					v-13.1h20.9v30.1c0,7.4-1.8,13.2-5.5,17.2c-3.7,4-9,6-16,6S722.6,827.8,718.9,823.8z"/>
				<path class="st4" d="M777.8,823.8c-3.7-4-5.5-9.7-5.5-17.2v-70.2h14.5v71.2c0,3.2,0.6,5.4,1.9,6.8c1.3,1.4,3.1,2.1,5.5,2.1
					s4.2-0.7,5.5-2.1c1.3-1.4,1.9-3.7,1.9-6.8v-71.2h13.9v70.2c0,7.4-1.8,13.2-5.5,17.2c-3.7,4-9,6-16,6
					C786.8,829.8,781.4,827.8,777.8,823.8z"/>
				<path class="st4" d="M845.8,789.3l-17.5-52.8h15.4l9.9,33.8h0.3l9.9-33.8h14.1l-17.5,52.8v39.2h-14.5V789.3z"/>
				<path class="st4" d="M892.1,823.8c-3.6-4-5.4-9.7-5.4-17.2v-5.3h13.7v6.3c0,6,2.5,8.9,7.5,8.9c2.5,0,4.3-0.7,5.6-2.2
					c1.3-1.4,1.9-3.8,1.9-7c0-3.9-0.9-7.2-2.6-10.2c-1.8-2.9-5-6.5-9.7-10.6c-6-5.3-10.1-10-12.5-14.3c-2.4-4.2-3.5-9-3.5-14.4
					c0-7.3,1.8-12.9,5.5-16.9c3.7-4,9-6,16-6c6.9,0,12.2,2,15.7,6c3.5,4,5.3,9.7,5.3,17.2v3.8h-13.7v-4.7c0-3.2-0.6-5.5-1.8-6.9
					c-1.2-1.4-3-2.2-5.4-2.2c-4.8,0-7.2,2.9-7.2,8.8c0,3.3,0.9,6.4,2.7,9.3c1.8,2.9,5.1,6.4,9.8,10.5c6,5.3,10.2,10,12.5,14.3
					c2.3,4.3,3.4,9.3,3.4,15.1c0,7.5-1.9,13.3-5.6,17.3c-3.7,4-9.1,6-16.2,6C901,829.8,895.7,827.8,892.1,823.8z"/>
			</g>
			<g class="st9">
				<g>
					<defs>
						
							<rect id="SVGID_1_" x="1.8" y="640.7" transform="matrix(0.9985 -5.434405e-02 5.434405e-02 0.9985 -37.9938 31.1369)" width="1103.5" height="147"/>
					</defs>
					<clipPath id="SVGID_2_">
						<use xlink:href="#SVGID_1_"  style="overflow:visible;"/>
					</clipPath>
					<g class="st10">
						<rect x="36" y="736.5" class="st7" width="929.6" height="164"/>
						<g class="st8">
							<path class="st3" d="M41.4,736.5h21.3c7.2,0,12.6,1.9,16.2,5.8c3.6,3.9,5.4,9.5,5.4,17v9.1c0,7.4-1.8,13.1-5.4,17
								c-3.6,3.9-9,5.8-16.2,5.8h-6.8v37.5H41.4V736.5z M62.7,777.9c2.4,0,4.1-0.7,5.3-2c1.2-1.3,1.8-3.5,1.8-6.7v-10.9
								c0-3.2-0.6-5.4-1.8-6.7c-1.2-1.3-3-2-5.3-2h-6.8v28.3H62.7z"/>
							<path class="st3" d="M99.1,736.5h21.4c7.4,0,12.9,1.7,16.3,5.2c3.4,3.5,5.1,8.8,5.1,16v5.7c0,9.6-3.2,15.6-9.5,18.1v0.3
								c3.5,1.1,6,3.2,7.4,6.4c1.4,3.2,2.2,7.6,2.2,13v16.2c0,2.6,0.1,4.8,0.3,6.4c0.2,1.6,0.6,3.2,1.3,4.8h-14.7
								c-0.5-1.5-0.9-2.9-1.1-4.2c-0.2-1.3-0.3-3.7-0.3-7.1v-16.8c0-4.2-0.7-7.1-2-8.8c-1.4-1.7-3.7-2.5-7-2.5h-5v39.4H99.1V736.5z
								 M118.8,775.9c2.9,0,5.1-0.7,6.5-2.2c1.4-1.5,2.2-4,2.2-7.5v-7.1c0-3.3-0.6-5.7-1.8-7.2c-1.2-1.5-3-2.2-5.6-2.2h-6.6v26.3
								H118.8z"/>
							<path class="st3" d="M163.6,823.8c-3.8-4-5.7-9.7-5.7-17.1v-48.4c0-7.4,1.9-13.1,5.7-17.1c3.8-4,9.2-6,16.3-6s12.5,2,16.3,6
								c3.8,4,5.7,9.7,5.7,17.1v48.4c0,7.4-1.9,13.1-5.7,17.1c-3.8,4-9.2,6-16.3,6S167.4,827.8,163.6,823.8z M187.4,807.6v-50.2
								c0-6-2.5-9.1-7.5-9.1s-7.5,3-7.5,9.1v50.2c0,6,2.5,9.1,7.5,9.1S187.4,813.6,187.4,807.6z"/>
							<path class="st3" d="M218.6,736.5h22.1c7.2,0,12.6,1.9,16.2,5.8c3.6,3.9,5.4,9.5,5.4,17v46.5c0,7.4-1.8,13.1-5.4,17
								c-3.6,3.9-9,5.8-16.2,5.8h-22.1V736.5z M240.4,815.3c2.4,0,4.2-0.7,5.5-2.1c1.3-1.4,1.9-3.7,1.9-6.8v-47.8
								c0-3.2-0.6-5.4-1.9-6.8c-1.3-1.4-3.1-2.1-5.5-2.1H233v65.7H240.4z"/>
							<path class="st3" d="M283.9,823.8c-3.7-4-5.5-9.7-5.5-17.2v-70.2h14.5v71.2c0,3.2,0.6,5.4,1.9,6.8c1.3,1.4,3.1,2.1,5.5,2.1
								s4.2-0.7,5.5-2.1c1.3-1.4,1.9-3.7,1.9-6.8v-71.2h13.9v70.2c0,7.4-1.8,13.2-5.5,17.2c-3.7,4-9,6-16,6
								C292.9,829.8,287.6,827.8,283.9,823.8z"/>
							<path class="st3" d="M343.2,823.9c-3.6-3.9-5.5-9.5-5.5-16.7v-49.4c0-7.2,1.8-12.7,5.5-16.7c3.6-3.9,8.9-5.9,15.8-5.9
								c6.9,0,12.2,2,15.8,5.9c3.6,3.9,5.5,9.5,5.5,16.7v9.7h-13.7v-10.6c0-5.7-2.4-8.5-7.2-8.5c-4.8,0-7.2,2.8-7.2,8.5v51.4
								c0,5.6,2.4,8.4,7.2,8.4c4.8,0,7.2-2.8,7.2-8.4v-14.1h13.7v13c0,7.2-1.8,12.7-5.5,16.7c-3.6,3.9-8.9,5.9-15.8,5.9
								C352.1,829.8,346.8,827.8,343.2,823.9z"/>
							<path class="st3" d="M407.3,749.6h-15.1v-13.1h44.7v13.1h-15.1v78.9h-14.5V749.6z"/>
							<path class="st3" d="M450.8,736.5h14.5v92h-14.5V736.5z"/>
							<path class="st3" d="M479.2,736.5h14.6l9.5,71.4h0.3l9.5-71.4h13.3l-13.9,92h-19.2L479.2,736.5z"/>
							<path class="st3" d="M540.2,736.5h14.5v92h-14.5V736.5z"/>
							<path class="st3" d="M583.7,749.6h-15.1v-13.1h44.7v13.1h-15.1v78.9h-14.5V749.6z"/>
							<path class="st3" d="M641,789.3l-17.5-52.8h15.4l9.9,33.8h0.3l9.9-33.8h14.1l-17.5,52.8v39.2H641V789.3z"/>
							<path class="st3" d="M718.9,823.8c-3.7-4-5.5-9.7-5.5-17.2v-48.4c0-7.4,1.8-13.2,5.5-17.2c3.7-4,9-6,16-6s12.4,2,16,6
								c3.7,4,5.5,9.7,5.5,17.2v7.9h-13.7v-8.8c0-6-2.5-9.1-7.5-9.1s-7.5,3-7.5,9.1v50.3c0,6,2.5,8.9,7.5,8.9s7.5-3,7.5-8.9v-18
								h-7.2v-13.1h20.9v30.1c0,7.4-1.8,13.2-5.5,17.2c-3.7,4-9,6-16,6S722.6,827.8,718.9,823.8z"/>
							<path class="st3" d="M777.8,823.8c-3.7-4-5.5-9.7-5.5-17.2v-70.2h14.5v71.2c0,3.2,0.6,5.4,1.9,6.8c1.3,1.4,3.1,2.1,5.5,2.1
								s4.2-0.7,5.5-2.1c1.3-1.4,1.9-3.7,1.9-6.8v-71.2h13.9v70.2c0,7.4-1.8,13.2-5.5,17.2c-3.7,4-9,6-16,6
								C786.8,829.8,781.4,827.8,777.8,823.8z"/>
							<path class="st3" d="M845.8,789.3l-17.5-52.8h15.4l9.9,33.8h0.3l9.9-33.8h14.1l-17.5,52.8v39.2h-14.5V789.3z"/>
							<path class="st3" d="M892.1,823.8c-3.6-4-5.4-9.7-5.4-17.2v-5.3h13.7v6.3c0,6,2.5,8.9,7.5,8.9c2.5,0,4.3-0.7,5.6-2.2
								c1.3-1.4,1.9-3.8,1.9-7c0-3.9-0.9-7.2-2.6-10.2c-1.8-2.9-5-6.5-9.7-10.6c-6-5.3-10.1-10-12.5-14.3c-2.4-4.2-3.5-9-3.5-14.4
								c0-7.3,1.8-12.9,5.5-16.9c3.7-4,9-6,16-6c6.9,0,12.2,2,15.7,6c3.5,4,5.3,9.7,5.3,17.2v3.8h-13.7v-4.7c0-3.2-0.6-5.5-1.8-6.9
								c-1.2-1.4-3-2.2-5.4-2.2c-4.8,0-7.2,2.9-7.2,8.8c0,3.3,0.9,6.4,2.7,9.3c1.8,2.9,5.1,6.4,9.8,10.5c6,5.3,10.2,10,12.5,14.3
								c2.3,4.3,3.4,9.3,3.4,15.1c0,7.5-1.9,13.3-5.6,17.3c-3.7,4-9.1,6-16.2,6C901,829.8,895.7,827.8,892.1,823.8z"/>
						</g>
					</g>
				</g>
			</g>
		</g>
	</g>
</g>
</svg>
